<svg width="880" height="442" viewBox="0 0 880 442" fill="none" xmlns="http://www.w3.org/2000/svg">
<style>
@font-face {
  font-family: "Inter",-apple-system,BlinkMacSystemFont,Segoe UI,Helvetica,Arial,sans-serif;
  font-style: normal;
  font-weight: 400;
  font-display: swap;
  src: url(https://fonts.gstatic.com/s/inter/v3/UcCO3FwrK3iLTeHuS_fvQtMwCp50KnMw2boKoduKmMEVuLyfAZ9hjp-Ek-_EeA.woff) format('woff');
  unicode-range: U+0000-00FF, U+0131, U+0152-0153, U+02BB-02BC, U+02C6, U+02DA, U+02DC, U+2000-206F, U+2074, U+20AC, U+2122, U+2191, U+2193, U+2212, U+2215, U+FEFF, U+FFFD;
}
</style>
<path d="M0 145H880V432C880 437.523 875.523 442 870 442H9.99999C4.47714 442 0 437.523 0 432V145Z" fill="white"/>
<path d="M0 10C0 4.47715 4.47715 0 10 0H870C875.523 0 880 4.47715 880 10V145H0V10Z" fill="#3C75DF"/>
<rect opacity="0.1" x="739" y="33" width="101" height="34" rx="4" fill="#131117"/>
<text fill="white" xml:space="preserve" style="white-space: pre" font-family="Inter,-apple-system,BlinkMacSystemFont,Segoe UI,Helvetica,Arial,sans-serif,Apple Color Emoji,Segoe UI Emoji,Segoe UI Symbol" font-size="12" font-weight="500" letter-spacing="0em"><tspan x="753.43" y="54.3636">Get Updates</tspan></text>
<path d="M57.1193 40H52.8068V59.4737H57.1193V40Z" fill="white"/>
<path d="M44.4432 48.8158C44.5016 48.4347 44.8139 47.8538 45.75 47.8947C46.9996 47.8538 47.0517 48.646 47.0568 48.9474H51.3693C50.9547 45.1077 47.6761 44.3421 45.75 44.3421C42.7842 44.3421 40.1821 46.2697 40.1307 49.3421C40.1821 51.2865 41.7434 52.5275 43.6591 53.1579C44.1992 53.3686 44.6741 53.5426 45.0884 53.6944C46.7575 54.3059 47.4434 54.5572 47.4489 55.3947C47.442 56.0657 46.6614 56.4881 45.8807 56.4474C45.7506 56.4881 44.4756 56.4881 44.3125 55.1316H40C40.3903 58.9966 43.695 60 45.8807 60C49.0812 60 51.7614 58.0988 51.7614 54.8684C51.7614 51.709 49.1593 50.9696 46.6648 50.2632C45.5685 49.9398 44.5016 49.4909 44.4432 48.8158Z" fill="white"/>
<path d="M59.0795 40H63.392V43.2895H59.0795V40Z" fill="white"/>
<path d="M63.392 44.8684H59.0795V59.4737H63.392V44.8684Z" fill="white"/>
<path fill-rule="evenodd" clip-rule="evenodd" d="M76.3295 59.4737H80.5114V40H76.1989V46.1842C75.6944 45.6465 74.4639 44.38 71.8864 44.3421C68.207 44.38 64.6989 47.2033 64.6989 52.1053C64.6989 56.5699 67.5787 60 72.017 60C74.909 60 75.9562 58.5488 76.3295 57.8947V59.4737ZM69.0114 52.1053C69.0114 54.3001 70.599 55.7895 72.6704 55.7895C73.6701 55.7895 74.6333 55.3713 75.2841 54.7368C75.9866 54.0126 76.377 53.072 76.3295 51.9737C76.3249 50.9556 75.9085 50.0672 75.2841 49.4737C74.6071 48.7869 73.6961 48.4211 72.6704 48.4211C70.1825 48.4211 69.0114 50.3807 69.0114 52.1053Z" fill="white"/>
<path fill-rule="evenodd" clip-rule="evenodd" d="M86 53.6842C86.1888 55.2655 87.6457 56.2972 89.3977 56.3158C90.7158 56.2972 91.4444 55.6887 92.0114 54.8684H96.3239C95.6855 56.5616 94.6708 57.8311 93.4489 58.6842C92.2509 59.5504 90.82 60 89.3977 60C85.1999 60 81.6875 56.588 81.6875 52.2368C81.6875 48.1243 84.8617 44.3421 89.267 44.3421C91.4705 44.3421 93.3698 45.2149 94.7557 46.7105C96.544 48.6533 97.0904 51.0073 96.7159 53.6842H86ZM89.267 48.0263C91.533 48.0263 92.4287 49.695 92.5341 50.3947H86C86.1053 49.695 87.0011 48.0263 89.267 48.0263Z" fill="white"/>
<path d="M102.989 47.8947C104.238 47.8538 104.29 48.646 104.295 48.9474H108.608C108.193 45.1077 104.915 44.3421 102.989 44.3421C100.023 44.3421 97.4208 46.2697 97.3693 49.3421C97.4208 51.2865 98.9821 52.5275 100.898 53.1579C101.438 53.3686 101.913 53.5426 102.327 53.6944C103.996 54.3059 104.682 54.5572 104.688 55.3947C104.681 56.0657 103.9 56.4881 103.119 56.4474C102.989 56.4881 101.714 56.4881 101.551 55.1316H97.2386C97.629 58.9966 100.934 60 103.119 60C106.32 60 109 58.0988 109 54.8684C109 51.709 106.398 50.9696 103.903 50.2632C102.807 49.9398 101.74 49.4909 101.682 48.8158C101.74 48.4347 102.053 47.8538 102.989 47.8947Z" fill="white"/>
<rect x="107" y="269" width="5" height="24" rx="2.5" fill="#3C75DF"/>
<rect x="41" y="269" width="5" height="24" rx="2.5" fill="#3C75DF"/>
<rect x="118" y="269" width="5" height="24" rx="2.5" fill="#3C75DF"/>
<rect x="52" y="269" width="5" height="24" rx="2.5" fill="#3C75DF"/>
<rect x="129" y="269" width="5" height="24" rx="2.5" fill="#3C75DF"/>
<rect x="63" y="269" width="5" height="24" rx="2.5" fill="#3C75DF"/>
<rect x="140" y="269" width="5" height="24" rx="2.5" fill="#3C75DF"/>
<rect x="74" y="269" width="5" height="24" rx="2.5" fill="#3C75DF"/>
<rect x="151" y="269" width="5" height="24" rx="2.5" fill="#3C75DF"/>
<rect x="85" y="269" width="5" height="24" rx="2.5" fill="#3C75DF"/>
<rect x="162" y="269" width="5" height="24" rx="2.5" fill="#3C75DF"/>
<rect x="96" y="269" width="5" height="24" rx="2.5" fill="#3C75DF"/>
<rect x="173" y="269" width="5" height="24" rx="2.5" fill="#3C75DF"/>
<rect x="184" y="269" width="5" height="24" rx="2.5" fill="#3C75DF"/>
<rect x="195" y="269" width="5" height="24" rx="2.5" fill="#3C75DF"/>
<rect x="206" y="269" width="5" height="24" rx="2.5" fill="#3C75DF"/>
<rect x="217" y="269" width="5" height="24" rx="2.5" fill="#3C75DF"/>
<rect x="228" y="269" width="5" height="24" rx="2.5" fill="#3C75DF"/>
<rect x="239" y="269" width="5" height="24" rx="2.5" fill="#3C75DF"/>
<rect x="250" y="269" width="5" height="24" rx="2.5" fill="#3C75DF"/>
<rect x="261" y="269" width="5" height="24" rx="2.5" fill="#3C75DF"/>
<rect x="272" y="269" width="5" height="24" rx="2.5" fill="#3C75DF"/>
<rect x="283" y="269" width="5" height="24" rx="2.5" fill="#3C75DF"/>
<rect x="294" y="269" width="5" height="24" rx="2.5" fill="#3C75DF"/>
<rect x="305" y="269" width="5" height="24" rx="2.5" fill="#3C75DF"/>
<rect x="316" y="269" width="5" height="24" rx="2.5" fill="#3C75DF"/>
<rect x="327" y="269" width="5" height="24" rx="2.5" fill="#3C75DF"/>
<rect x="338" y="269" width="5" height="24" rx="2.5" fill="#3C75DF"/>
<rect x="349" y="269" width="5" height="24" rx="2.5" fill="#3C75DF"/>
<rect x="360" y="269" width="5" height="24" rx="2.5" fill="#3C75DF"/>
<rect x="371" y="269" width="5" height="24" rx="2.5" fill="#3C75DF"/>
<rect x="382" y="269" width="5" height="24" rx="2.5" fill="#3C75DF"/>
<rect x="393" y="265" width="5" height="32" rx="2.5" fill="#F065CB"/>
<rect x="404" y="269" width="5" height="24" rx="2.5" fill="#3C75DF"/>
<rect x="415" y="269" width="5" height="24" rx="2.5" fill="#3C75DF"/>
<rect x="426" y="265" width="5" height="32" rx="2.5" fill="#F065CB"/>
<rect x="437" y="269" width="5" height="24" rx="2.5" fill="#3C75DF"/>
<rect x="448" y="269" width="5" height="24" rx="2.5" fill="#3C75DF"/>
<rect x="459" y="269" width="5" height="24" rx="2.5" fill="#3C75DF"/>
<rect x="492" y="273" width="5" height="16" rx="2.5" fill="#D9D9D9"/>
<rect x="481" y="269" width="5" height="24" rx="2.5" fill="#3C75DF"/>
<rect x="470" y="269" width="5" height="24" rx="2.5" fill="#3C75DF"/>
<rect x="503" y="273" width="5" height="16" rx="2.5" fill="#D9D9D9"/>
<rect x="514" y="269" width="5" height="24" rx="2.5" fill="#3C75DF"/>
<rect x="525" y="269" width="5" height="24" rx="2.5" fill="#3C75DF"/>
<rect x="536" y="269" width="5" height="24" rx="2.5" fill="#3C75DF"/>
<rect x="547" y="269" width="5" height="24" rx="2.5" fill="#3C75DF"/>
<rect x="558" y="269" width="5" height="24" rx="2.5" fill="#3C75DF"/>
<rect x="569" y="265" width="5" height="32" rx="2.5" fill="#F065CB"/>
<rect x="580" y="269" width="5" height="24" rx="2.5" fill="#3C75DF"/>
<rect x="591" y="269" width="5" height="24" rx="2.5" fill="#3C75DF"/>
<rect x="602" y="269" width="5" height="24" rx="2.5" fill="#3C75DF"/>
<rect x="613" y="273" width="5" height="16" rx="2.5" fill="#D9D9D9"/>
<rect x="624" y="269" width="5" height="24" rx="2.5" fill="#3C75DF"/>
<rect x="635" y="273" width="5" height="16" rx="2.5" fill="#D9D9D9"/>
<rect x="646" y="269" width="5" height="24" rx="2.5" fill="#3C75DF"/>
<rect x="657" y="269" width="5" height="24" rx="2.5" fill="#3C75DF"/>
<rect x="668" y="265" width="5" height="32" rx="2.5" fill="#F065CB"/>
<rect x="679" y="269" width="5" height="24" rx="2.5" fill="#3C75DF"/>
<rect x="690" y="269" width="5" height="24" rx="2.5" fill="#3C75DF"/>
<rect x="701" y="269" width="5" height="24" rx="2.5" fill="#3C75DF"/>
<rect x="712" y="269" width="5" height="24" rx="2.5" fill="#3C75DF"/>
<rect x="723" y="269" width="5" height="24" rx="2.5" fill="#3C75DF"/>
<rect x="734" y="269" width="5" height="24" rx="2.5" fill="#3C75DF"/>
<rect x="745" y="269" width="5" height="24" rx="2.5" fill="#3C75DF"/>
<rect x="756" y="269" width="5" height="24" rx="2.5" fill="#3C75DF"/>
<rect x="767" y="269" width="5" height="24" rx="2.5" fill="#3C75DF"/>
<rect x="778" y="269" width="5" height="24" rx="2.5" fill="#3C75DF"/>
<rect x="789" y="269" width="5" height="24" rx="2.5" fill="#3C75DF"/>
<rect x="800" y="269" width="5" height="24" rx="2.5" fill="#3C75DF"/>
<rect x="811" y="269" width="5" height="24" rx="2.5" fill="#3C75DF"/>
<rect x="822" y="269" width="5" height="24" rx="2.5" fill="#3C75DF"/>
<rect x="833" y="269" width="5" height="24" rx="2.5" fill="#3C75DF"/>
<text fill="#131117" xml:space="preserve" style="white-space: pre" font-family="Inter,-apple-system,BlinkMacSystemFont,Segoe UI,Helvetica,Arial,sans-serif,Apple Color Emoji,Segoe UI Emoji,Segoe UI Symbol" font-size="17" font-weight="500" letter-spacing="0em"><tspan x="62" y="246.682">slides.com</tspan></text>
<text opacity="0.6" fill="#131117" xml:space="preserve" style="white-space: pre" font-family="Inter,-apple-system,BlinkMacSystemFont,Segoe UI,Helvetica,Arial,sans-serif,Apple Color Emoji,Segoe UI Emoji,Segoe UI Symbol" font-size="17" font-weight="500" letter-spacing="0em"><tspan x="804.572" y="246.682">95%</tspan></text>
<circle cx="48" cy="241" r="8" fill="#3C75DF"/>
<path d="M44.7998 241L47.1271 243.4L51.1998 238.6" stroke="white" stroke-width="1.2" stroke-miterlimit="10" stroke-linecap="round" stroke-linejoin="round"/>
<rect x="107" y="375" width="5" height="24" rx="2.5" fill="#3C75DF"/>
<rect x="118" y="375" width="5" height="24" rx="2.5" fill="#3C75DF"/>
<rect x="129" y="375" width="5" height="24" rx="2.5" fill="#3C75DF"/>
<rect x="140" y="375" width="5" height="24" rx="2.5" fill="#3C75DF"/>
<rect x="151" y="375" width="5" height="24" rx="2.5" fill="#3C75DF"/>
<rect x="162" y="375" width="5" height="24" rx="2.5" fill="#3C75DF"/>
<rect x="173" y="375" width="5" height="24" rx="2.5" fill="#3C75DF"/>
<rect x="184" y="375" width="5" height="24" rx="2.5" fill="#3C75DF"/>
<rect x="195" y="375" width="5" height="24" rx="2.5" fill="#3C75DF"/>
<rect x="206" y="375" width="5" height="24" rx="2.5" fill="#3C75DF"/>
<rect x="217" y="375" width="5" height="24" rx="2.5" fill="#3C75DF"/>
<rect x="228" y="375" width="5" height="24" rx="2.5" fill="#3C75DF"/>
<rect x="239" y="375" width="5" height="24" rx="2.5" fill="#3C75DF"/>
<rect x="250" y="375" width="5" height="24" rx="2.5" fill="#3C75DF"/>
<rect x="261" y="375" width="5" height="24" rx="2.5" fill="#3C75DF"/>
<rect x="272" y="375" width="5" height="24" rx="2.5" fill="#3C75DF"/>
<rect x="283" y="375" width="5" height="24" rx="2.5" fill="#3C75DF"/>
<rect x="294" y="375" width="5" height="24" rx="2.5" fill="#3C75DF"/>
<rect x="305" y="375" width="5" height="24" rx="2.5" fill="#3C75DF"/>
<rect x="316" y="375" width="5" height="24" rx="2.5" fill="#3C75DF"/>
<rect x="327" y="375" width="5" height="24" rx="2.5" fill="#3C75DF"/>
<rect x="338" y="375" width="5" height="24" rx="2.5" fill="#3C75DF"/>
<rect x="349" y="375" width="5" height="24" rx="2.5" fill="#3C75DF"/>
<rect x="360" y="375" width="5" height="24" rx="2.5" fill="#3C75DF"/>
<rect x="371" y="375" width="5" height="24" rx="2.5" fill="#3C75DF"/>
<rect x="382" y="375" width="5" height="24" rx="2.5" fill="#3C75DF"/>
<rect x="393" y="375" width="5" height="24" rx="2.5" fill="#3C75DF"/>
<rect x="404" y="375" width="5" height="24" rx="2.5" fill="#3C75DF"/>
<rect x="415" y="375" width="5" height="24" rx="2.5" fill="#3C75DF"/>
<rect x="426" y="375" width="5" height="24" rx="2.5" fill="#3C75DF"/>
<rect x="437" y="375" width="5" height="24" rx="2.5" fill="#3C75DF"/>
<rect x="448" y="375" width="5" height="24" rx="2.5" fill="#3C75DF"/>
<rect x="459" y="375" width="5" height="24" rx="2.5" fill="#3C75DF"/>
<rect x="492" y="375" width="5" height="24" rx="2.5" fill="#3C75DF"/>
<rect x="481" y="379" width="5" height="16" rx="2.5" fill="#D9D9D9"/>
<rect x="470" y="379" width="5" height="16" rx="2.5" fill="#D9D9D9"/>
<rect x="503" y="375" width="5" height="24" rx="2.5" fill="#3C75DF"/>
<rect x="514" y="375" width="5" height="24" rx="2.5" fill="#3C75DF"/>
<rect x="525" y="375" width="5" height="24" rx="2.5" fill="#3C75DF"/>
<rect x="536" y="375" width="5" height="24" rx="2.5" fill="#3C75DF"/>
<rect x="547" y="375" width="5" height="24" rx="2.5" fill="#3C75DF"/>
<rect x="558" y="375" width="5" height="24" rx="2.5" fill="#3C75DF"/>
<rect x="569" y="375" width="5" height="24" rx="2.5" fill="#3C75DF"/>
<rect x="580" y="375" width="5" height="24" rx="2.5" fill="#3C75DF"/>
<rect x="591" y="375" width="5" height="24" rx="2.5" fill="#3C75DF"/>
<rect x="602" y="375" width="5" height="24" rx="2.5" fill="#3C75DF"/>
<rect x="613" y="375" width="5" height="24" rx="2.5" fill="#3C75DF"/>
<rect x="624" y="371" width="5" height="32" rx="2.5" fill="#F065CB"/>
<rect x="635" y="375" width="5" height="24" rx="2.5" fill="#3C75DF"/>
<rect x="646" y="375" width="5" height="24" rx="2.5" fill="#3C75DF"/>
<rect x="657" y="375" width="5" height="24" rx="2.5" fill="#3C75DF"/>
<rect x="668" y="375" width="5" height="24" rx="2.5" fill="#3C75DF"/>
<rect x="679" y="375" width="5" height="24" rx="2.5" fill="#3C75DF"/>
<rect x="690" y="375" width="5" height="24" rx="2.5" fill="#3C75DF"/>
<rect x="701" y="375" width="5" height="24" rx="2.5" fill="#3C75DF"/>
<rect x="712" y="375" width="5" height="24" rx="2.5" fill="#3C75DF"/>
<rect x="723" y="375" width="5" height="24" rx="2.5" fill="#3C75DF"/>
<rect x="734" y="375" width="5" height="24" rx="2.5" fill="#3C75DF"/>
<rect x="745" y="375" width="5" height="24" rx="2.5" fill="#3C75DF"/>
<rect x="756" y="375" width="5" height="24" rx="2.5" fill="#3C75DF"/>
<rect x="767" y="375" width="5" height="24" rx="2.5" fill="#3C75DF"/>
<rect x="778" y="375" width="5" height="24" rx="2.5" fill="#3C75DF"/>
<rect x="789" y="375" width="5" height="24" rx="2.5" fill="#3C75DF"/>
<rect x="800" y="375" width="5" height="24" rx="2.5" fill="#3C75DF"/>
<rect x="811" y="375" width="5" height="24" rx="2.5" fill="#3C75DF"/>
<rect x="822" y="375" width="5" height="24" rx="2.5" fill="#3C75DF"/>
<rect x="833" y="375" width="5" height="24" rx="2.5" fill="#3C75DF"/>
<rect x="40" y="375" width="5" height="24" rx="2.5" fill="#3C75DF"/>
<rect x="51" y="375" width="5" height="24" rx="2.5" fill="#3C75DF"/>
<rect x="62" y="375" width="5" height="24" rx="2.5" fill="#3C75DF"/>
<rect x="73" y="375" width="5" height="24" rx="2.5" fill="#3C75DF"/>
<rect x="84" y="375" width="5" height="24" rx="2.5" fill="#3C75DF"/>
<rect x="95" y="375" width="5" height="24" rx="2.5" fill="#3C75DF"/>
<text fill="#131117" xml:space="preserve" style="white-space: pre" font-family="Inter,-apple-system,BlinkMacSystemFont,Segoe UI,Helvetica,Arial,sans-serif,Apple Color Emoji,Segoe UI Emoji,Segoe UI Symbol" font-size="17" font-weight="500" letter-spacing="0em"><tspan x="62" y="352.682">API</tspan></text>
<text opacity="0.6" fill="#131117" xml:space="preserve" style="white-space: pre" font-family="Inter,-apple-system,BlinkMacSystemFont,Segoe UI,Helvetica,Arial,sans-serif,Apple Color Emoji,Segoe UI Emoji,Segoe UI Symbol" font-size="17" font-weight="500" letter-spacing="0em"><tspan x="804.373" y="352.682">98%</tspan></text>
<circle cx="48" cy="347" r="8" fill="#3C75DF"/>
<path d="M44.7998 347L47.1271 349.4L51.1998 344.6" stroke="white" stroke-width="1.2" stroke-miterlimit="10" stroke-linecap="round" stroke-linejoin="round"/>
<rect x="40" y="100" width="800" height="90" rx="8" fill="#131117"/>
<text fill="white" xml:space="preserve" style="white-space: pre" font-family="Inter,-apple-system,BlinkMacSystemFont,Segoe UI,Helvetica,Arial,sans-serif,Apple Color Emoji,Segoe UI Emoji,Segoe UI Symbol" font-size="20" font-weight="500" letter-spacing="0em"><tspan x="105" y="152.273">All Systems Operational</tspan></text>
<circle cx="80" cy="145" r="10" fill="white"/>
<path d="M76 145L78.9091 148L84 142" stroke="#131117" stroke-width="1.5" stroke-miterlimit="10" stroke-linecap="round" stroke-linejoin="round"/>
</svg>
