<svg width="34" height="26" viewBox="0 0 34 26" fill="none" xmlns="http://www.w3.org/2000/svg">
<path d="M17.0132 25.0012C21.4124 25.0012 24.9786 21.4424 24.9786 17.0524C24.9786 12.6623 21.4124 9.10352 17.0132 9.10352C12.6141 9.10352 9.04785 12.6623 9.04785 17.0524C9.04785 21.4424 12.6141 25.0012 17.0132 25.0012Z" fill="url(#paint0_linear)"/>
<path d="M0.21873 7.85924L4.496 12.9115C4.57371 13.0039 4.66918 13.0798 4.77677 13.1348C4.88435 13.1897 5.00188 13.2226 5.12241 13.2315C5.24294 13.2404 5.36404 13.2252 5.47857 13.1866C5.59309 13.1481 5.69872 13.0871 5.78923 13.0071C12.7105 6.81724 21.332 6.81724 28.2293 13.0071C28.3202 13.0872 28.4262 13.1483 28.5412 13.1869C28.6561 13.2255 28.7776 13.2408 28.8985 13.2319C29.0194 13.223 29.1373 13.1901 29.2453 13.1351C29.3533 13.08 29.4492 13.004 29.5273 12.9115L33.7854 7.85924C33.9407 7.67498 34.0167 7.43701 33.9969 7.1971C33.9772 6.9572 33.8633 6.73478 33.6801 6.57825C23.6216 -2.19275 10.3587 -2.19275 0.309735 6.57825C0.129683 6.73746 0.0193168 6.96074 0.00230422 7.20021C-0.0147084 7.43968 0.0629873 7.67627 0.21873 7.85924Z" fill="#2684FF"/>
<defs>
<linearGradient id="paint0_linear" x1="17.0132" y1="22.2624" x2="17.0132" y2="8.18579" gradientUnits="userSpaceOnUse">
<stop stop-color="#2684FF"/>
<stop offset="0.82" stop-color="#0052CC"/>
</linearGradient>
</defs>
</svg>
